{"title":"The.Noite.2018.09.27.720p.WEB-DL.x264-Skylane77","magnet":"magnet:?xt=urn:btih:d2b4e5d94c70b360612b4bf5fc009f30f1657208&dn=The.Noite.2018.09.27.720p.WEB-DL.x264-Skylane77&tr=udp%3A%2F%2Ftracker.leechers-paradise.org%3A6969&tr=udp%3A%2F%2Fzer0day.ch%3A1337&tr=udp%3A%2F%2Fopen.demonii.com%3A1337&tr=udp%3A%2F%2Ftracker.coppersurfer.tk%3A6969&tr=udp%3A%2F%2Fexodus.desync.com%3A6969","uploader":"beechbaron77","categoryP":"video","categoryS":"hd___tv_shows","size":"549092192","seeders":"0","leechers":"0","description":"Ra&#xE7;a Negra\r\n\r\n--\r\nVideo\r\nID: 1\r\nFormat: AVC\r\nFormat/Info: Advanced Video Codec\r\nFormat profile: High@L4.1\r\nFormat settings: CABAC / 9 Ref Frames\r\nFormat settings, CABAC: Yes\r\nFormat settings, ReFrames: 9 frames\r\nCodec ID: avc1\r\nCodec ID/Info: Advanced Video Coding\r\nDuration: 50 min 36 s\r\nBit rate: 1 313 kb/s\r\nWidth: 1 280 pixels\r\nHeight: 720 pixels\r\nDisplay aspect ratio: 16:9\r\nFrame rate mode: Variable\r\nFrame rate: 29.940 FPS\r\nMinimum frame rate: 0.446 FPS\r\nMaximum frame rate: 30.000 FPS\r\nColor space: YUV\r\nChroma subsampling: 4:2:0\r\nBit depth: 8 bits\r\nScan type: Progressive\r\nBits/(Pixel*Frame): 0.048\r\nStream size: 475 MiB (91%)\r\nWriting library: x264 core 155 r2917 0a84d98\r\nEncoding settings: cabac=1 / ref=9 / deblock=1:0:0 / analyse=0x3:0x133 / me=umh / subme=10 / psy=1 / psy_rd=1.00:0.00 / mixed_ref=1 / me_range=24 / chroma_me=1 / trellis=2 / 8x8dct=1 / cqm=0 / deadzone=21,11 / fast_pskip=1 / chroma_qp_offset=-2 / threads=12 / lookahead_threads=2 / sliced_threads=0 / nr=0 / decimate=1 / interlaced=0 / bluray_compat=0 / constrained_intra=0 / bframes=8 / b_pyramid=2 / b_adapt=2 / b_bias=0 / direct=3 / weightb=1 / open_gop=0 / weightp=2 / keyint=250 / keyint_min=25 / scenecut=40 / intra_refresh=0 / rc_lookahead=60 / rc=crf / mbtree=1 / crf=25.0 / qcomp=0.60 / qpmin=0 / qpmax=69 / qpstep=4 / ip_ratio=1.40 / aq=1:1.00\r\nCodec configuration box: avcC\r\n\r\nAudio\r\nID: 2\r\nFormat: AAC LC\r\nFormat/Info: Advanced Audio Codec Low Complexity\r\nCodec ID: mp4a-40-2\r\nDuration: 50 min 39 s\r\nBit rate mode: Variable\r\nBit rate: 126 kb/s\r\nChannel(s): 2 channels\r\nChannel layout: L R\r\nSampling rate: 48.0 kHz\r\nFrame rate: 46.875 FPS (1024 SPF)\r\nCompression mode: Lossy\r\nStream size: 45.4 MiB (9%)\r\nDefault: Yes\r\nAlternate group: 1","last_updated":"2018-09-29T13:41:48.856Z","parsed":{"xt":"urn:btih:d2b4e5d94c70b360612b4bf5fc009f30f1657208","dn":"The.Noite.2018.09.27.720p.WEB-DL.x264-Skylane77","tr":["udp://exodus.desync.com:6969","udp://open.demonii.com:1337","udp://tracker.coppersurfer.tk:6969","udp://tracker.leechers-paradise.org:6969","udp://zer0day.ch:1337"],"infoHash":"d2b4e5d94c70b360612b4bf5fc009f30f1657208","infoHashBuffer":{"type":"Buffer","data":[210,180,229,217,76,112,179,96,97,43,75,245,252,0,159,48,241,101,114,8]},"name":"The.Noite.2018.09.27.720p.WEB-DL.x264-Skylane77","announce":["udp://exodus.desync.com:6969","udp://open.demonii.com:1337","udp://tracker.coppersurfer.tk:6969","udp://tracker.leechers-paradise.org:6969","udp://zer0day.ch:1337"],"urlList":[]}}